<svg xmlns="http://www.w3.org/2000/svg" xmlns:xlink="http://www.w3.org/1999/xlink" version="1.1" width="599.8pt" height="177.7pt" viewBox="0 0 599.8 177.7">
<path transform="matrix(.45,0,0,.45,0,0)" d="M0 0H1333V395H0Z" fill="#ffffff"/>
<path transform="matrix(.45,0,0,.45,67.185,64.93499)" d="M160 80C160 124.2 124.2 160 80 160 35.8 160 0 124.2 0 80 0 35.8 35.8 0 80 0 124.2 0 160 35.8 160 80Z" fill="#ffffff"/>
<path transform="matrix(.45,0,0,.45,67.185,64.93499)" stroke-width="5" stroke-linecap="butt" stroke-miterlimit="4" stroke-linejoin="miter" fill="none" stroke="#3a414a" d="M160 80C160 124.2 124.2 160 80 160 35.8 160 0 124.2 0 80 0 35.8 35.8 0 80 0 124.2 0 160 35.8 160 80Z"/>
<path transform="matrix(.45,0,0,.45,214.78499,64.93499)" d="M160 80C160 124.2 124.2 160 80 160 35.8 160 0 124.2 0 80 0 35.8 35.8 0 80 0 124.2 0 160 35.8 160 80Z" fill="#ffffff"/>
<path transform="matrix(.45,0,0,.45,214.78499,64.93499)" stroke-width="5" stroke-linecap="butt" stroke-miterlimit="4" stroke-linejoin="miter" fill="none" stroke="#3a414a" d="M160 80C160 124.2 124.2 160 80 160 35.8 160 0 124.2 0 80 0 35.8 35.8 0 80 0 124.2 0 160 35.8 160 80Z"/>
<path transform="matrix(.45,0,0,.45,362.385,64.93499)" d="M160 80C160 124.2 124.2 160 80 160 35.8 160 0 124.2 0 80 0 35.8 35.8 0 80 0 124.2 0 160 35.8 160 80Z" fill="#ffffff"/>
<path transform="matrix(.45,0,0,.45,362.385,64.93499)" stroke-width="5" stroke-linecap="butt" stroke-miterlimit="4" stroke-linejoin="miter" fill="none" stroke="#3a414a" d="M160 80C160 124.2 124.2 160 80 160 35.8 160 0 124.2 0 80 0 35.8 35.8 0 80 0 124.2 0 160 35.8 160 80Z"/>
<path transform="matrix(.45,0,0,.45,509.84999,64.93499)" d="M160 80C160 124.2 124.2 160 80 160 35.8 160 0 124.2 0 80 0 35.8 35.8 0 80 0 124.2 0 160 35.8 160 80Z" fill="#d7faf5"/>
<path transform="matrix(.45,0,0,.45,509.84999,64.93499)" stroke-width="5" stroke-linecap="butt" stroke-miterlimit="4" stroke-linejoin="miter" fill="none" stroke="#3a414a" d="M160 80C160 124.2 124.2 160 80 160 35.8 160 0 124.2 0 80 0 35.8 35.8 0 80 0 124.2 0 160 35.8 160 80Z"/>
<path transform="matrix(.45,0,0,.45,-52.199998,-104.85)" stroke-width="4" stroke-linecap="butt" stroke-miterlimit="4" stroke-linejoin="miter" fill="none" stroke="#3a414a" d="M429.8 457.3H509.3 568.1"/>
<path transform="matrix(.45,0,0,.45,-52.199998,-104.85)" d="M429.9 459.3H427.8V457.4 456.6 455.3H429.9Z" fill="#3a414a"/>
<path transform="matrix(.45,0,0,.45,-52.199998,-104.85)" stroke-width=".05" stroke-linecap="butt" stroke-miterlimit="4" stroke-linejoin="miter" fill="none" stroke="#3a414a" d="M429.9 459.3H427.8V457.4 456.6 455.3H429.9Z"/>
<path transform="matrix(.45,0,0,.45,-52.199998,-104.85)" d="M584.4 457.3 570.1 462V452.7Z" fill="#3a414a"/>
<path transform="matrix(.45,0,0,.45,-52.199998,-104.85)" stroke-width="4" stroke-linecap="butt" stroke-miterlimit="4" stroke-linejoin="miter" fill="none" stroke="#3a414a" d="M584.4 457.3 570.1 462V452.7Z"/>
<path transform="matrix(.45,0,0,.45,-52.199998,-104.85)" stroke-width="4" stroke-linecap="butt" stroke-miterlimit="4" stroke-linejoin="miter" fill="none" stroke="#3a414a" d="M673.3 372.8V340.8C673.3 334.8 667.3 334.8 667.3 334.8H351.3C345.3 334.8 345.3 340.8 345.3 340.8V352.1"/>
<path transform="matrix(.45,0,0,.45,-52.199998,-104.85)" d="M675.3 374.9 673.4 374.8H672.6L671.3 374.9V372.8H675.3Z" fill="#3a414a"/>
<path transform="matrix(.45,0,0,.45,-52.199998,-104.85)" stroke-width=".05" stroke-linecap="butt" stroke-miterlimit="4" stroke-linejoin="miter" fill="none" stroke="#3a414a" d="M675.3 374.9 673.4 374.8H672.6L671.3 374.9V372.8H675.3Z"/>
<path transform="matrix(.45,0,0,.45,-52.199998,-104.85)" d="M345.3 368.4 340.7 354.1H350Z" fill="#3a414a"/>
<path transform="matrix(.45,0,0,.45,-52.199998,-104.85)" stroke-width="4" stroke-linecap="butt" stroke-miterlimit="4" stroke-linejoin="miter" fill="none" stroke="#3a414a" d="M345.3 368.4 340.7 354.1H350Z"/>
<path transform="matrix(.45,0,0,.45,-52.199998,-104.85)" stroke-width="4" stroke-linecap="butt" stroke-miterlimit="4" stroke-linejoin="miter" fill="none" stroke="#3a414a" d="M757.8 456H896.1"/>
<path transform="matrix(.45,0,0,.45,-52.199998,-104.85)" d="M757.9 458H755.8V457.4 456.6L755.7 454H757.9Z" fill="#3a414a"/>
<path transform="matrix(.45,0,0,.45,-52.199998,-104.85)" stroke-width=".05" stroke-linecap="butt" stroke-miterlimit="4" stroke-linejoin="miter" fill="none" stroke="#3a414a" d="M757.9 458H755.8V457.4 456.6L755.7 454H757.9Z"/>
<path transform="matrix(.45,0,0,.45,-52.199998,-104.85)" d="M912.4 456 898.1 460.6V451.4Z" fill="#3a414a"/>
<path transform="matrix(.45,0,0,.45,-52.199998,-104.85)" stroke-width="4" stroke-linecap="butt" stroke-miterlimit="4" stroke-linejoin="miter" fill="none" stroke="#3a414a" d="M912.4 456 898.1 460.6V451.4Z"/>
<path transform="matrix(.45,0,0,.45,-52.199998,-104.85)" stroke-width="5" stroke-linecap="butt" stroke-miterlimit="4" stroke-linejoin="miter" fill="none" stroke="#3a414a" d="M1086 457.3H1222"/>
<path transform="matrix(.45,0,0,.45,-52.199998,-104.85)" d="M1086 459.8H1083V457.4 456.6 454.8H1086Z" fill="#3a414a"/>
<path transform="matrix(.45,0,0,.45,-52.199998,-104.85)" stroke-width=".05" stroke-linecap="butt" stroke-miterlimit="4" stroke-linejoin="miter" fill="none" stroke="#3a414a" d="M1086 459.8H1083V457.4 456.6 454.8H1086Z"/>
<path transform="matrix(.45,0,0,.45,-52.199998,-104.85)" d="M1238 457.3 1224 462V452.7Z" fill="#3a414a"/>
<path transform="matrix(.45,0,0,.45,-52.199998,-104.85)" stroke-width="5" stroke-linecap="butt" stroke-miterlimit="4" stroke-linejoin="miter" fill="none" stroke="#3a414a" d="M1238 457.3 1224 462V452.7Z"/>
<path transform="matrix(.45,0,0,.45,-52.199998,-104.85)" stroke-width="5" stroke-linecap="butt" stroke-miterlimit="4" stroke-linejoin="miter" fill="none" stroke="#3a414a" d="M1001 542.3V573.8C1001 579.8 995.3 579.8 995.3 579.8H679.3C673.3 579.8 673.3 573.8 673.3 573.8V564.7"/>
<path transform="matrix(.45,0,0,.45,-52.199998,-104.85)" d="M1001 539.8H1002 1003V542.4H998.8V539.8Z" fill="#3a414a"/>
<path transform="matrix(.45,0,0,.45,-52.199998,-104.85)" stroke-width=".05" stroke-linecap="butt" stroke-miterlimit="4" stroke-linejoin="miter" fill="none" stroke="#3a414a" d="M1001 539.8H1002 1003V542.4H998.8V539.8Z"/>
<path transform="matrix(.45,0,0,.45,-52.199998,-104.85)" d="M673.3 547.9 678 562.2H668.7Z" fill="#3a414a"/>
<path transform="matrix(.45,0,0,.45,-52.199998,-104.85)" stroke-width="5" stroke-linecap="butt" stroke-miterlimit="4" stroke-linejoin="miter" fill="none" stroke="#3a414a" d="M673.3 547.9 678 562.2H668.7Z"/>
<path transform="matrix(.45,0,0,.45,121.770008,17.82)" d="M0 6C0 0 6 0 6 0H234C240 0 240 6 240 6V54C240 60 234 60 234 60H6C0 60 0 54 0 54Z" fill="#ffffff" fill-opacity="0"/>
<path transform="matrix(.45,0,0,.45,121.770008,17.82)" stroke-width="9" stroke-linecap="butt" stroke-miterlimit="4" stroke-linejoin="miter" fill="none" stroke="#000000" stroke-opacity="0" d="M0 6C0 0 6 0 6 0H234C240 0 240 6 240 6V54C240 60 234 60 234 60H6C0 60 0 54 0 54Z"/>
<path transform="matrix(.0388845,0,0,.0388845,171.495,34.0785)" d="M135-194C188-194 205-150 205-96 205-40 186 2 132 4 101 5 87-13 73-30 76 3 75 39 75 75H25L24-190H72C74-180 72-167 75-159 86-183 104-194 135-194ZM114-30C147-30 153-61 154-96 154-134 145-160 114-160 58-160 59-30 114-30Z" fill="#3a414a"/>
<path transform="matrix(.45,0,0,.45,415.8,76.63499)" d="M0 6C0 0 6 0 6 0H234C240 0 240 6 240 6V54C240 60 234 60 234 60H6C0 60 0 54 0 54Z" fill="#ffffff" fill-opacity="0"/>
<path transform="matrix(.45,0,0,.45,415.8,76.63499)" stroke-width="9" stroke-linecap="butt" stroke-miterlimit="4" stroke-linejoin="miter" fill="none" stroke="#000000" stroke-opacity="0" d="M0 6C0 0 6 0 6 0H234C240 0 240 6 240 6V54C240 60 234 60 234 60H6C0 60 0 54 0 54Z"/>
<path transform="matrix(.0388845,0,0,.0388845,465.525,92.893489)" d="M135-194C188-194 205-150 205-96 205-40 186 2 132 4 101 5 87-13 73-30 76 3 75 39 75 75H25L24-190H72C74-180 72-167 75-159 86-183 104-194 135-194ZM114-30C147-30 153-61 154-96 154-134 145-160 114-160 58-160 59-30 114-30Z" fill="#3a414a"/>
<path transform="matrix(.45,0,0,.45,269.37,73.62)" d="M0 6C0 0 6 0 6 0H234C240 0 240 6 240 6V54C240 60 234 60 234 60H6C0 60 0 54 0 54Z" fill="#ffffff" fill-opacity="0"/>
<path transform="matrix(.45,0,0,.45,269.37,73.62)" stroke-width="9" stroke-linecap="butt" stroke-miterlimit="4" stroke-linejoin="miter" fill="none" stroke="#000000" stroke-opacity="0" d="M0 6C0 0 6 0 6 0H234C240 0 240 6 240 6V54C240 60 234 60 234 60H6C0 60 0 54 0 54Z"/>
<path transform="matrix(.0388845,0,0,.0388845,312.9075,89.8785)" d="M23 0V-18.5-37H84V-121.5-206L25-169V-188-207L87-248H133V-142.5-37H190V-18.5 0H23Z" fill="#3a414a"/>
<path transform="matrix(.0388845,0,0,.0388845,320.6844,89.8785)" d="M14-72V-93.5-115H105V-93.5-72H14Z" fill="#3a414a"/>
<path transform="matrix(.0388845,0,0,.0388845,325.31166,89.8785)" d="M135-194C188-194 205-150 205-96 205-40 186 2 132 4 101 5 87-13 73-30 76 3 75 39 75 75H25L24-190H72C74-180 72-167 75-159 86-183 104-194 135-194ZM114-30C147-30 153-61 154-96 154-134 145-160 114-160 58-160 59-30 114-30Z" fill="#3a414a"/>
<path transform="matrix(.45,0,0,.45,269.37,132.435)" d="M0 6C0 0 6 0 6 0H234C240 0 240 6 240 6V54C240 60 234 60 234 60H6C0 60 0 54 0 54Z" fill="#ffffff" fill-opacity="0"/>
<path transform="matrix(.45,0,0,.45,269.37,132.435)" stroke-width="9" stroke-linecap="butt" stroke-miterlimit="4" stroke-linejoin="miter" fill="none" stroke="#000000" stroke-opacity="0" d="M0 6C0 0 6 0 6 0H234C240 0 240 6 240 6V54C240 60 234 60 234 60H6C0 60 0 54 0 54Z"/>
<path transform="matrix(.0388845,0,0,.0388845,312.9075,148.6935)" d="M23 0V-18.5-37H84V-121.5-206L25-169V-188-207L87-248H133V-142.5-37H190V-18.5 0H23Z" fill="#3a414a"/>
<path transform="matrix(.0388845,0,0,.0388845,320.6844,148.6935)" d="M14-72V-93.5-115H105V-93.5-72H14Z" fill="#3a414a"/>
<path transform="matrix(.0388845,0,0,.0388845,325.31166,148.6935)" d="M135-194C188-194 205-150 205-96 205-40 186 2 132 4 101 5 87-13 73-30 76 3 75 39 75 75H25L24-190H72C74-180 72-167 75-159 86-183 104-194 135-194ZM114-30C147-30 153-61 154-96 154-134 145-160 114-160 58-160 59-30 114-30Z" fill="#3a414a"/>
<path transform="matrix(.45,0,0,.45,121.770008,73.62)" d="M0 6C0 0 6 0 6 0H234C240 0 240 6 240 6V54C240 60 234 60 234 60H6C0 60 0 54 0 54Z" fill="#ffffff" fill-opacity="0"/>
<path transform="matrix(.45,0,0,.45,121.770008,73.62)" stroke-width="9" stroke-linecap="butt" stroke-miterlimit="4" stroke-linejoin="miter" fill="none" stroke="#000000" stroke-opacity="0" d="M0 6C0 0 6 0 6 0H234C240 0 240 6 240 6V54C240 60 234 60 234 60H6C0 60 0 54 0 54Z"/>
<path transform="matrix(.0388845,0,0,.0388845,171.495,89.8785)" d="M135-194C188-194 205-150 205-96 205-40 186 2 132 4 101 5 87-13 73-30 76 3 75 39 75 75H25L24-190H72C74-180 72-167 75-159 86-183 104-194 135-194ZM114-30C147-30 153-61 154-96 154-134 145-160 114-160 58-160 59-30 114-30Z" fill="#3a414a"/>
<path transform="matrix(.45,0,0,.45,-24.002999,121.63499)" d="M0 6C0 0 6 0 6 0H234C240 0 240 6 240 6V54C240 60 234 60 234 60H6C0 60 0 54 0 54Z" fill="#ffffff" fill-opacity="0"/>
<path transform="matrix(.45,0,0,.45,-24.002999,121.63499)" stroke-width="9" stroke-linecap="butt" stroke-miterlimit="4" stroke-linejoin="miter" fill="none" stroke="#000000" stroke-opacity="0" d="M0 6C0 0 6 0 6 0H234C240 0 240 6 240 6V54C240 60 234 60 234 60H6C0 60 0 54 0 54Z"/>
<path transform="matrix(.0388845,0,0,.0388845,19.534502,137.8935)" d="M23 0V-18.5-37H84V-121.5-206L25-169V-188-207L87-248H133V-142.5-37H190V-18.5 0H23Z" fill="#3a414a"/>
<path transform="matrix(.0388845,0,0,.0388845,27.311402,137.8935)" d="M14-72V-93.5-115H105V-93.5-72H14Z" fill="#3a414a"/>
<path transform="matrix(.0388845,0,0,.0388845,31.938656,137.8935)" d="M135-194C188-194 205-150 205-96 205-40 186 2 132 4 101 5 87-13 73-30 76 3 75 39 75 75H25L24-190H72C74-180 72-167 75-159 86-183 104-194 135-194ZM114-30C147-30 153-61 154-96 154-134 145-160 114-160 58-160 59-30 114-30Z" fill="#3a414a"/>
<path transform="matrix(.45,0,0,.45,49.185007,86.670009)" d="M0 6C0 0 6 0 6 0H234C240 0 240 6 240 6V57.3C240 63.33 234 63.33 234 63.33L6 63.3C0 63.33 0 57.33 0 57.33Z" fill="#ffffff" fill-opacity="0"/>
<path transform="matrix(.45,0,0,.45,49.185007,86.670009)" stroke-width="5" stroke-linecap="butt" stroke-miterlimit="4" stroke-linejoin="miter" fill="none" stroke="#000000" stroke-opacity="0" d="M0 6C0 0 6 0 6 0H234C240 0 240 6 240 6V57.3C240 63.33 234 63.33 234 63.33L6 63.3C0 63.33 0 57.33 0 57.33Z"/>
<path transform="matrix(.05553,0,0,.05553,97.605,106.43851)" d="M23 0V-18.5-37H84V-121.5-206L25-169V-188-207L87-248H133V-142.5-37H190V-18.5 0H23Z" fill="#282c33"/>
<path transform="matrix(.45,0,0,.45,196.78499,85.49999)" d="M0 6C0 0 6 0 6 0H234C240 0 240 6 240 6V62.7C240 68.66 234 68.66 234 68.66L6 68.7C0 68.66 0 62.66 0 62.66Z" fill="#ffffff" fill-opacity="0"/>
<path transform="matrix(.45,0,0,.45,196.78499,85.49999)" stroke-width="5" stroke-linecap="butt" stroke-miterlimit="4" stroke-linejoin="miter" fill="none" stroke="#000000" stroke-opacity="0" d="M0 6C0 0 6 0 6 0H234C240 0 240 6 240 6V62.7C240 68.66 234 68.66 234 68.66L6 68.7C0 68.66 0 62.66 0 62.66Z"/>
<path transform="matrix(.05553,0,0,.05553,245.20499,105.40799)" d="M182-182C182-104 98-96 71-41H186V-20.5 0H12C6-101 111-100 132-180 133-202 120-211 99-212 76-212 67-198 64-178L15-181C20-226 47-251 99-251 150-251 182-229 182-182Z" fill="#282c33"/>
<path transform="matrix(.0349965,0,0,.0349965,256.31999,105.40799)" d=""/>
<path transform="matrix(.45,0,0,.45,344.385,86.670009)" d="M0 6C0 0 6 0 6 0H234C240 0 240 6 240 6V57.3C240 63.33 234 63.33 234 63.33L6 63.3C0 63.33 0 57.33 0 57.33Z" fill="#ffffff" fill-opacity="0"/>
<path transform="matrix(.45,0,0,.45,344.385,86.670009)" stroke-width="5" stroke-linecap="butt" stroke-miterlimit="4" stroke-linejoin="miter" fill="none" stroke="#000000" stroke-opacity="0" d="M0 6C0 0 6 0 6 0H234C240 0 240 6 240 6V57.3C240 63.33 234 63.33 234 63.33L6 63.3C0 63.33 0 57.33 0 57.33Z"/>
<path transform="matrix(.05553,0,0,.05553,392.805,106.43851)" d="M128-127C162-123 184-106 187-69 194 22 39 25 15-41 11-50 9-58 8-67L59-72C60-48 75-37 99-36 122-36 138-48 137-72 136-103 106-108 72-106V-126-146C104-144 131-149 131-179 131-199 118-212 97-212 76-212 64-199 62-180L12-183C18-227 49-251 98-251 148-251 181-231 181-185 181-150 159-133 128-127Z" fill="#282c33"/>
<path transform="matrix(.45,0,0,.45,538.19998,87.88499)" d="M0 0H33.5V63.3H0Z" fill="#ffffff" fill-opacity="0"/>
<path transform="matrix(.05553,0,0,.05553,540.44998,106.132488)" d="M165-50V-25 0H118V-25-50H5V-69-88L110-248H165V-167.5-87H198V-68.5-50H165ZM118-87 120-203 46-87H118Z" fill="#282c33"/>
<path transform="matrix(.45,0,0,.45,-52.199998,-104.85)" stroke-width="5" stroke-linecap="butt" stroke-miterlimit="4" stroke-linejoin="miter" fill="none" stroke="#3a414a" d="M345.3 542.3V573.8C345.3 579.8 339.3 579.8 339.3 579.8H228.8C222.8 579.8 222.8 573.8 222.8 573.8V463.3C222.8 457.3 228.8 457.3 228.8 457.3H238"/>
<path transform="matrix(.45,0,0,.45,-52.199998,-104.85)" d="M345.3 539.8H346.1 347.8V542.4H342.8V539.8Z" fill="#3a414a"/>
<path transform="matrix(.45,0,0,.45,-52.199998,-104.85)" stroke-width=".05" stroke-linecap="butt" stroke-miterlimit="4" stroke-linejoin="miter" fill="none" stroke="#3a414a" d="M345.3 539.8H346.1 347.8V542.4H342.8V539.8Z"/>
<path transform="matrix(.45,0,0,.45,-52.199998,-104.85)" d="M254.7 457.3 240.5 462V452.7Z" fill="#3a414a"/>
<path transform="matrix(.45,0,0,.45,-52.199998,-104.85)" stroke-width="5" stroke-linecap="butt" stroke-miterlimit="4" stroke-linejoin="miter" fill="none" stroke="#3a414a" d="M254.7 457.3 240.5 462V452.7Z"/>
<text fill-opacity="0" xml:space="preserve" transform="matrix(.45 0 -0 .45 0 0)" font-size="31.11" font-family="Helvetica" font-style="italic"><tspan y="75.8" x="381.2">p</tspan></text>
<text fill-opacity="0" xml:space="preserve" transform="matrix(.45 0 -0 .45 0 0)" font-size="31.11" font-family="Helvetica" font-style="italic"><tspan y="206.4" x="1034">p</tspan></text>
<text fill-opacity="0" xml:space="preserve" transform="matrix(.45 0 -0 .45 0 0)" font-size="31.11" font-family="Helvetica" font-style="italic"><tspan y="199.8" x="695.4 712.68008 722.9601">1-p</tspan></text>
<text fill-opacity="0" xml:space="preserve" transform="matrix(.45 0 -0 .45 0 0)" font-size="31.11" font-family="Helvetica" font-style="italic"><tspan y="330.4" x="695.4 712.68008 722.9601">1-p</tspan></text>
<text fill-opacity="0" xml:space="preserve" transform="matrix(.45 0 -0 .45 0 0)" font-size="31.11" font-family="Helvetica" font-style="italic"><tspan y="199.8" x="381.2">p</tspan></text>
<text fill-opacity="0" xml:space="preserve" transform="matrix(.45 0 -0 .45 0 0)" font-size="31.11" font-family="Helvetica" font-style="italic"><tspan y="306.4" x="43.41 60.690004 70.97">1-p</tspan></text>
<text fill-opacity="0" xml:space="preserve" transform="matrix(.45 0 -0 .45 0 0)" font-size="44.44" font-family="Helvetica" font-style="italic"><tspan y="236.5" x="216.9">1</tspan></text>
<text fill-opacity="0" xml:space="preserve" transform="matrix(.45 0 -0 .45 0 0)" font-size="44.44" font-family="Helvetica" font-style="italic"><tspan y="234.2" x="544.9">2</tspan></text>
<text fill-opacity="0" xml:space="preserve" transform="matrix(.45 0 -0 .45 0 0)" font-size="28" font-family="Helvetica"><tspan y="234.2" x="569.6"> </tspan></text>
<text fill-opacity="0" xml:space="preserve" transform="matrix(.45 0 -0 .45 0 0)" font-size="44.44" font-family="Helvetica" font-style="italic"><tspan y="236.5" x="872.9">3</tspan></text>
<text fill-opacity="0" xml:space="preserve" transform="matrix(.45 0 -0 .45 0 0)" font-size="44.44" font-family="Helvetica" font-style="italic"><tspan y="235.8" x="1201">4</tspan></text>
</svg>
