<?xml version="1.0" standalone="no"?>
<!DOCTYPE svg PUBLIC "-//W3C//DTD SVG 20010904//EN"
 "http://www.w3.org/TR/2001/REC-SVG-20010904/DTD/svg10.dtd">
<svg version="1.0" xmlns="http://www.w3.org/2000/svg"
 width="400.000000pt" height="400.000000pt" viewBox="0 0 400.000000 400.000000"
 preserveAspectRatio="xMidYMid meet">
<metadata>
Created by potrace 1.14, written by Peter Selinger 2001-2017
</metadata>
<g transform="translate(0.000000,400.000000) scale(0.100000,-0.100000)"
fill="#000000" stroke="none">
<path d="M0 2000 l0 -2000 2000 0 2000 0 0 1155 c0 788 -3 1155 -10 1155 -6 0
-33 -11 -60 -25 -28 -14 -50 -23 -50 -20 0 2 27 18 60 35 l60 30 0 200 c0 195
-7 235 -30 178 -5 -13 -9 -17 -9 -11 -1 9 -8 10 -27 3 -39 -15 -53 -11 -21 6
15 8 27 22 27 31 0 12 -7 11 -32 -10 -18 -13 -32 -28 -32 -33 1 -5 -9 -13 -21
-19 -13 -5 -77 -62 -142 -125 -155 -150 -189 -178 -306 -256 -141 -93 -257
-148 -367 -174 -100 -24 -130 -35 -130 -49 0 -14 66 -22 94 -11 28 10 214 40
254 40 23 0 199 100 293 167 63 45 122 69 199 82 36 7 76 14 90 17 18 3 21 2
10 -5 -8 -5 -37 -13 -65 -16 -76 -10 -145 -34 -200 -72 -27 -19 -98 -66 -157
-105 -60 -38 -105 -74 -102 -79 8 -14 166 -10 193 5 13 7 32 11 41 9 19 -5
173 72 253 127 27 18 51 30 54 27 2 -3 -10 -13 -29 -23 -18 -9 -46 -27 -63
-39 -16 -13 -71 -43 -122 -69 -50 -25 -94 -50 -97 -55 -6 -9 43 -51 58 -51 4
0 41 -27 84 -59 l77 -59 4 41 5 42 5 -50 c6 -46 9 -52 55 -82 26 -18 44 -33
39 -33 -4 0 -25 11 -46 25 -20 14 -42 23 -47 20 -6 -3 -10 0 -10 8 0 34 -262
199 -283 178 -6 -6 -18 -6 -32 1 -17 8 -42 3 -111 -20 -101 -34 -158 -46 -149
-32 6 10 -174 7 -278 -5 -66 -8 -67 -8 -50 -28 16 -17 18 -40 18 -181 1 -168
7 -199 44 -211 11 -3 18 -11 16 -18 -6 -15 4 -30 30 -46 17 -11 15 -11 -16 -6
-45 7 -54 -9 -35 -64 13 -38 94 -151 108 -151 4 0 5 -7 2 -15 -3 -8 6 -40 21
-72 14 -31 30 -73 35 -93 4 -19 13 -48 19 -65 6 -16 13 -42 16 -57 4 -19 13
-28 35 -33 16 -3 39 -15 52 -24 13 -10 32 -20 43 -22 11 -2 28 -20 37 -39 35
-73 72 -86 143 -50 38 19 39 19 82 0 56 -25 55 -32 -1 -12 -41 15 -46 15 -64
-1 -10 -9 -23 -17 -29 -17 -5 0 -9 -10 -9 -22 1 -15 -5 -22 -21 -23 -12 -1
-20 1 -18 5 2 4 -13 16 -33 28 -45 25 -70 53 -64 71 3 8 1 11 -4 8 -5 -2 -30
-2 -56 2 -38 6 -48 5 -54 -8 -5 -12 -10 -8 -20 16 -8 18 -18 33 -23 33 -6 0
-10 8 -10 18 -1 9 -3 35 -6 57 -14 98 -17 109 -25 95 -6 -10 -16 3 -35 45 -14
32 -45 78 -69 102 -33 32 -47 56 -57 96 -7 28 -14 47 -16 40 -2 -6 0 -28 5
-47 6 -19 7 -37 4 -40 -12 -13 -32 60 -32 119 0 69 11 107 37 133 15 16 15 17
0 20 -10 2 -15 8 -12 13 8 12 -28 -2 -37 -15 -4 -6 -5 -19 -2 -30 4 -12 2 -16
-5 -12 -6 4 -11 14 -11 22 0 8 -7 14 -15 14 -18 0 -18 2 -4 55 19 77 19 82 -1
108 -11 14 -30 27 -43 29 -14 2 -21 9 -21 21 2 18 -8 20 -66 17 -42 -2 -57
-10 -40 -20 16 -10 4 -43 -13 -37 -6 2 -11 12 -11 21 2 19 -12 20 -46 3 -21
-11 -27 -11 -37 2 -10 14 -13 13 -21 -9 l-9 -25 -22 35 c-11 19 -21 41 -21 48
0 7 -4 11 -9 8 -13 -8 -54 81 -47 100 5 13 9 13 33 -3 16 -9 36 -23 45 -31 16
-14 18 -13 18 7 0 14 -18 40 -46 67 -44 42 -62 54 -50 35 9 -15 -29 -19 -81
-10 -26 5 -75 11 -108 12 -60 3 -60 3 -114 -47 -30 -28 -64 -61 -75 -74 -11
-13 -43 -37 -71 -55 -42 -26 -59 -31 -110 -30 -67 1 -195 33 -255 63 -46 24
-107 26 -155 6 -43 -18 -46 -12 -5 9 16 8 48 15 71 15 38 0 40 1 28 17 -13 17
-13 17 13 1 47 -30 226 -78 292 -78 52 0 70 5 112 31 55 35 164 137 164 155 0
6 -13 17 -30 24 -16 7 -42 23 -57 37 -16 14 -41 33 -58 44 -16 10 -25 19 -18
19 10 0 -49 88 -102 153 -8 9 -13 17 -10 17 3 0 -4 18 -15 40 -24 47 -41 90
-36 90 2 0 18 -27 34 -60 54 -106 208 -290 242 -290 5 0 20 5 33 11 18 8 30 8
43 1 15 -9 21 -6 31 11 7 12 12 16 13 9 0 -7 -5 -22 -10 -32 -14 -25 -5 -29
81 -31 79 -2 159 9 159 21 0 4 -15 20 -32 35 -18 15 -25 25 -15 21 15 -5 17
-2 13 17 -3 12 -3 16 0 9 3 -6 10 -10 15 -6 11 6 12 25 2 22 -5 -1 -18 1 -30
6 -13 4 -32 2 -45 -5 -13 -7 -34 -14 -47 -15 -13 -2 -29 -8 -34 -13 -14 -14
-70 -14 -62 -1 4 6 11 8 16 4 6 -3 24 0 41 7 27 11 29 14 14 25 -9 6 -27 10
-39 7 -22 -5 -22 -5 1 12 22 16 22 18 7 41 -17 26 -12 32 10 10 8 -7 11 -17 7
-21 -4 -4 4 -4 18 -1 24 7 25 7 5 -9 -19 -15 -19 -17 -2 -29 21 -16 59 -15 64
1 2 6 -5 14 -16 18 -12 3 -21 15 -21 26 0 19 -31 38 -75 44 -29 5 -102 45 -82
45 10 0 30 -6 45 -14 15 -8 43 -15 62 -17 19 -2 41 -8 49 -13 8 -6 3 7 -12 29
-15 22 -27 44 -27 50 0 5 5 2 11 -9 9 -15 13 -16 20 -5 6 10 9 8 9 -8 0 -12
12 -35 26 -50 15 -15 22 -21 16 -13 -7 11 -6 19 4 28 12 11 14 10 14 -7 0 -20
25 -35 41 -25 5 3 9 11 9 17 0 21 -133 224 -181 276 -30 33 -43 55 -38 63 9
15 -36 102 -85 163 -18 22 -47 62 -66 89 -18 27 -54 69 -79 94 -25 25 -35 40
-24 33 12 -6 43 -37 68 -69 116 -145 139 -171 147 -166 4 3 11 -9 15 -26 4
-23 8 -28 15 -18 6 9 7 6 3 -9 -4 -14 -2 -23 4 -23 6 0 11 -8 11 -18 0 -29 86
-155 156 -229 7 -7 21 -28 33 -46 20 -32 57 -57 85 -57 7 0 21 10 32 22 10 12
13 18 7 14 -7 -4 -13 -2 -13 3 0 13 12 14 26 3 5 -5 28 -14 52 -21 57 -16 77
-2 67 48 -16 93 -17 132 -1 165 9 19 16 42 17 53 0 10 3 13 6 6 2 -7 -3 -36
-12 -64 -12 -34 -15 -63 -10 -92 4 -23 8 -64 10 -92 4 -70 4 -72 15 -55 7 11
8 6 4 -16 -4 -19 -1 -34 5 -38 6 -4 9 -12 6 -17 -8 -12 27 2 44 18 7 8 17 37
21 66 4 29 8 41 9 27 1 -21 6 -25 35 -27 25 -1 36 3 39 15 4 15 5 14 6 -2 1
-15 6 -17 29 -12 15 4 36 8 46 10 23 3 66 51 62 69 -1 6 -1 8 2 4 2 -5 25 22
49 60 53 79 77 106 43 48 -85 -144 -140 -212 -162 -199 -18 11 -65 -18 -101
-61 -20 -24 -37 -48 -37 -54 0 -5 15 -12 33 -14 l32 -4 -32 -1 c-24 -2 -33 -7
-34 -19 0 -17 -1 -17 -8 0 -4 10 -9 19 -12 20 -9 3 -42 -33 -36 -39 3 -3 -4
-15 -15 -26 -32 -32 -9 -40 63 -22 85 22 139 53 139 80 0 12 6 27 14 33 11 9
12 6 8 -14 -3 -19 0 -25 13 -25 47 0 201 47 282 87 77 37 104 57 158 115 64
69 154 209 201 312 12 28 23 44 23 36 0 -8 -17 -51 -39 -95 -21 -44 -37 -82
-34 -84 2 -3 19 9 37 26 17 17 57 42 87 57 31 14 74 40 95 59 22 18 56 44 75
57 44 30 66 51 124 118 l46 53 0 549 0 550 -2000 0 -2000 0 0 -2000z m3970
1272 c-13 -9 -38 -28 -55 -42 -16 -14 -39 -32 -50 -40 -18 -13 -19 -12 -5 2
28 31 115 98 125 97 5 0 -1 -8 -15 -17z m-2170 -26 c0 -2 -7 -7 -16 -10 -8 -3
-12 -2 -9 4 6 10 25 14 25 6z m1981 -109 c-10 -9 -11 -8 -5 6 3 10 9 15 12 12
3 -3 0 -11 -7 -18z m22 -9 c-12 -13 -33 -50 -47 -83 -14 -33 -25 -51 -26 -40
0 11 7 31 16 43 8 12 13 26 10 31 -3 5 8 23 26 40 37 36 52 42 21 9z m-1762
-165 c13 -16 12 -17 -3 -4 -10 7 -18 15 -18 17 0 8 8 3 21 -13z m1216 -5 c-3
-8 -6 -5 -6 6 -1 11 2 17 5 13 3 -3 4 -12 1 -19z m429 -65 c-47 -111 -47 -111
-41 -82 5 29 62 159 69 159 2 0 -10 -35 -28 -77z m-1567 -58 c13 -22 15 -31 6
-20 -18 22 -53 86 -38 70 6 -5 20 -28 32 -50z m1068 -107 c-3 -8 -6 -5 -6 6
-1 11 2 17 5 13 3 -3 4 -12 1 -19z m-17 -55 c-11 -17 -11 -17 -6 0 3 10 6 24
7 30 0 9 2 9 5 0 3 -7 0 -20 -6 -30z m-1010 -79 c0 -3 -13 4 -30 16 -16 12
-30 24 -30 26 0 3 14 -4 30 -16 17 -12 30 -24 30 -26z m960 -24 c-6 -11 -13
-20 -16 -20 -2 0 0 9 6 20 6 11 13 20 16 20 2 0 0 -9 -6 -20z m-113 -22 c-3
-7 -5 -2 -5 12 0 14 2 19 5 13 2 -7 2 -19 0 -25z m-1266 -25 c13 -16 12 -17
-3 -4 -10 7 -18 15 -18 17 0 8 8 3 21 -13z m996 -25 c-3 -8 -6 -5 -6 6 -1 11
2 17 5 13 3 -3 4 -12 1 -19z m240 -43 c0 -8 -3 -13 -5 -10 -3 3 -12 -1 -21 -7
-10 -8 -9 -4 3 10 23 26 23 26 23 7z m-1169 -40 c-3 -3 -9 2 -12 12 -6 14 -5
15 5 6 7 -7 10 -15 7 -18z m507 -64 c3 -5 2 -12 -3 -15 -5 -3 -9 1 -9 9 0 17
3 19 12 6z m391 -89 c-15 -15 -15 -15 -4 10 7 15 15 23 17 17 2 -6 -4 -18 -13
-27z m-600 -97 c17 7 17 8 -6 16 -18 6 -11 7 23 4 27 -3 57 -11 68 -19 19 -13
19 -14 -3 -19 -12 -4 -29 -1 -37 6 -12 10 -14 9 -8 -5 4 -12 2 -18 -8 -18 -8
0 -15 5 -15 10 0 6 -8 10 -17 10 -15 0 -16 -2 -3 -10 11 -7 12 -12 4 -20 -9
-9 -14 -3 -22 19 -6 17 -16 31 -22 31 -6 0 -8 5 -5 11 5 6 12 4 20 -7 8 -12
18 -15 31 -9z m-361 -63 c-3 -3 -11 0 -18 7 -9 10 -8 11 6 5 10 -3 15 -9 12
-12z m112 2 c-3 -3 -12 -4 -19 -1 -8 3 -5 6 6 6 11 1 17 -2 13 -5z m1931 -109
c-3 -3 -9 2 -12 12 -6 14 -5 15 5 6 7 -7 10 -15 7 -18z m-2353 -25 c-3 -5 -12
-10 -18 -10 -7 0 -6 4 3 10 19 12 23 12 15 0z m930 -51 c15 -15 -18 -10 -45 6
l-25 15 30 -6 c17 -4 34 -11 40 -15z m-824 -16 c13 -16 12 -17 -3 -4 -10 7
-18 15 -18 17 0 8 8 3 21 -13z m2386 -89 c-3 -3 -12 -4 -19 -1 -8 3 -5 6 6 6
11 1 17 -2 13 -5z m-2507 -7 c0 -2 -10 -12 -22 -23 l-23 -19 19 23 c18 21 26
27 26 19z m2390 -42 c0 -8 -2 -15 -4 -15 -2 0 -6 7 -10 15 -3 8 -1 15 4 15 6
0 10 -7 10 -15z m-1050 -41 c0 -17 -22 -14 -28 4 -2 7 3 12 12 12 9 0 16 -7
16 -16z m1089 -74 c0 -10 -3 -8 -9 5 -12 27 -12 43 0 25 5 -8 9 -22 9 -30z m8
-52 c-3 -7 -5 -2 -5 12 0 14 2 19 5 13 2 -7 2 -19 0 -25z m-1063 -24 c9 -25
-20 -47 -59 -46 -40 2 -57 16 -52 42 4 23 47 26 48 3 1 -18 2 -16 15 25 3 10
7 10 24 0 11 -7 22 -18 24 -24z m-153 -1 c15 -18 19 -55 6 -64 -4 -3 -8 -35
-8 -71 l-1 -65 -52 -13 c-28 -7 -73 -24 -101 -38 -29 -14 -51 -20 -53 -14 -5
16 -55 -2 -143 -53 -44 -26 -90 -47 -101 -48 -22 -2 -59 -68 -74 -132 l-7 -30
25 23 c13 12 27 20 30 16 4 -3 20 2 37 10 16 9 34 16 38 16 14 0 -54 -39 -74
-42 -10 -2 -24 -9 -31 -16 -8 -7 -17 -10 -22 -7 -4 3 -25 -41 -45 -97 l-37
-101 26 -156 c18 -107 26 -193 26 -274 0 -117 0 -118 26 -127 14 -6 50 -10 80
-10 30 0 54 -4 54 -10 0 -5 -12 -10 -27 -10 l-28 -1 30 -13 30 -13 -57 -7
c-40 -5 -58 -12 -58 -22 0 -7 -10 -16 -22 -18 -44 -9 -303 -14 -283 -6 16 7
11 9 -20 10 -45 2 -83 14 -69 22 5 3 30 8 56 12 25 4 49 13 52 21 3 8 13 11
27 8 19 -5 21 -3 15 13 -5 14 -4 16 5 7 8 -9 21 -8 51 3 22 8 54 14 70 14 21
0 31 6 38 26 17 45 11 251 -10 353 -11 52 -20 109 -20 128 0 18 -4 33 -8 33
-14 0 -68 -62 -106 -120 -20 -30 -36 -50 -36 -44 0 17 47 84 90 129 21 22 43
50 49 61 17 34 60 158 57 162 -6 6 -110 -49 -133 -71 -13 -11 -23 -16 -23 -11
0 11 81 66 135 91 30 14 42 27 53 58 8 22 17 47 20 55 3 8 7 26 8 39 2 13 5
30 8 37 6 15 151 112 226 149 58 30 193 75 223 75 10 0 16 4 12 9 -3 5 -1 13
5 16 7 4 8 23 4 51 -10 67 7 94 37 57z m443 -22 c3 -5 -1 -11 -9 -14 -9 -4
-12 -1 -8 9 6 16 10 17 17 5z m773 -68 c-3 -10 -5 -4 -5 12 0 17 2 24 5 18 2
-7 2 -21 0 -30z m-1354 -20 c-13 -2 -35 -2 -50 0 -16 2 -5 4 22 4 28 0 40 -2
28 -4z m1344 -35 c-3 -8 -6 -5 -6 6 -1 11 2 17 5 13 3 -3 4 -12 1 -19z m-1234
-95 c-7 -2 -19 -2 -25 0 -7 3 -2 5 12 5 14 0 19 -2 13 -5z m490 -60 c-7 -2
-21 -2 -30 0 -10 3 -4 5 12 5 17 0 24 -2 18 -5z m130 0 c-7 -2 -19 -2 -25 0
-7 3 -2 5 12 5 14 0 19 -2 13 -5z m-623 -66 c0 -2 -10 -12 -22 -23 l-23 -19
19 23 c18 21 26 27 26 19z m204 -42 c-4 -8 -11 -12 -17 -8 -8 5 -7 8 1 11 7 2
9 9 6 14 -4 7 -2 8 4 4 6 -4 9 -13 6 -21z m-404 -23 c0 -5 -11 -14 -25 -20
-39 -18 -44 -14 -10 7 36 23 35 23 35 13z m381 -33 c-5 -13 -10 -19 -10 -12
-1 15 10 45 15 40 3 -2 0 -15 -5 -28z m-458 -6 c-7 -2 -19 -2 -25 0 -7 3 -2 5
12 5 14 0 19 -2 13 -5z m1296 -456 c7 -7 32 -14 71 -22 8 -1 22 -5 31 -9 9 -4
20 -6 25 -5 21 4 78 -3 65 -8 -18 -7 40 -33 78 -34 20 -1 21 -2 6 -6 -11 -2
-29 -8 -40 -13 -11 -5 -40 -12 -65 -14 -103 -12 -139 -19 -136 -25 13 -21
-410 12 -440 34 -15 10 -9 13 37 19 52 7 128 23 159 34 15 5 21 6 78 17 17 3
32 10 32 15 0 6 15 10 34 10 33 0 34 0 42 58 l9 57 3 -50 c2 -27 7 -53 11 -58z
m148 67 c-3 -3 -12 -4 -19 -1 -8 3 -5 6 6 6 11 1 17 -2 13 -5z m-1920 -116
c-3 -8 -6 -5 -6 6 -1 11 2 17 5 13 3 -3 4 -12 1 -19z m1336 -45 c-7 -2 -19 -2
-25 0 -7 3 -2 5 12 5 14 0 19 -2 13 -5z m-1372 -60 c-12 -20 -14 -14 -5 12 4
9 9 14 11 11 3 -2 0 -13 -6 -23z"/>
<path d="M3965 2817 c-41 -58 -42 -60 -1 -40 30 15 36 23 36 51 0 17 -1 32 -2
32 -2 -1 -16 -20 -33 -43z"/>
<path d="M3953 2755 c-3 -9 -3 -18 0 -22 10 -10 37 6 37 22 0 20 -29 20 -37 0z"/>
<path d="M3719 2631 c-13 -10 -41 -24 -62 -32 -55 -19 -142 -95 -187 -164 -21
-32 -37 -61 -35 -63 12 -12 262 201 303 259 17 24 11 24 -19 0z"/>
<path d="M2770 2274 c-6 -14 -10 -34 -10 -45 0 -17 8 -13 46 23 36 33 42 44
29 46 -10 2 -21 -2 -26 -10 -6 -10 -9 -10 -9 0 0 22 -20 13 -30 -14z"/>
<path d="M2655 2281 c-3 -5 -1 -12 5 -16 5 -3 10 1 10 9 0 18 -6 21 -15 7z"/>
<path d="M2715 2210 c-3 -5 -2 -10 4 -10 5 0 13 5 16 10 3 6 2 10 -4 10 -5 0
-13 -4 -16 -10z"/>
<path d="M2475 2140 c4 -6 11 -8 16 -5 14 9 11 15 -7 15 -8 0 -12 -5 -9 -10z"/>
<path d="M2540 2109 l-44 -32 -22 28 c-23 29 -38 28 -47 -4 -4 -15 6 -30 38
-55 38 -31 44 -34 56 -20 8 10 15 12 23 4 20 -20 35 -11 27 18 -4 15 -6 33 -5
40 1 6 2 17 3 22 0 6 8 10 16 10 8 0 15 5 15 10 0 17 -15 11 -60 -21z"/>
<path d="M3277 2033 c-20 -2 -35 -8 -32 -14 7 -10 54 -2 70 12 5 5 7 8 5 7 -3
-1 -22 -3 -43 -5z"/>
<path d="M2510 1749 c0 -5 5 -7 10 -4 6 3 10 8 10 11 0 2 -4 4 -10 4 -5 0 -10
-5 -10 -11z"/>
</g>
</svg>
